<svg id="visual" viewBox="0 0 960 300" width="960" height="300" xmlns="http://www.w3.org/2000/svg" xmlns:xlink="http://www.w3.org/1999/xlink" version="1.1"><rect x="0" y="0" width="960" height="300" fill="#202731"></rect><path d="M0 103L22.8 106.3C45.7 109.7 91.3 116.3 137 113.2C182.7 110 228.3 97 274 91.2C319.7 85.3 365.3 86.7 411.2 92.2C457 97.7 503 107.3 548.8 112.8C594.7 118.3 640.3 119.7 686 120.8C731.7 122 777.3 123 823 118.2C868.7 113.3 914.3 102.7 937.2 97.3L960 92L960 0L937.2 0C914.3 0 868.7 0 823 0C777.3 0 731.7 0 686 0C640.3 0 594.7 0 548.8 0C503 0 457 0 411.2 0C365.3 0 319.7 0 274 0C228.3 0 182.7 0 137 0C91.3 0 45.7 0 22.8 0L0 0Z" fill="#fa7268"></path><path d="M0 92L22.8 88.3C45.7 84.7 91.3 77.3 137 73.7C182.7 70 228.3 70 274 68.8C319.7 67.7 365.3 65.3 411.2 66.8C457 68.3 503 73.7 548.8 74.8C594.7 76 640.3 73 686 74.7C731.7 76.3 777.3 82.7 823 84.5C868.7 86.3 914.3 83.7 937.2 82.3L960 81L960 0L937.2 0C914.3 0 868.7 0 823 0C777.3 0 731.7 0 686 0C640.3 0 594.7 0 548.8 0C503 0 457 0 411.2 0C365.3 0 319.7 0 274 0C228.3 0 182.7 0 137 0C91.3 0 45.7 0 22.8 0L0 0Z" fill="#ef5f67"></path><path d="M0 80L22.8 78.7C45.7 77.3 91.3 74.7 137 71C182.7 67.3 228.3 62.7 274 60.8C319.7 59 365.3 60 411.2 58C457 56 503 51 548.8 51.2C594.7 51.3 640.3 56.7 686 59.3C731.7 62 777.3 62 823 61.2C868.7 60.3 914.3 58.7 937.2 57.8L960 57L960 0L937.2 0C914.3 0 868.7 0 823 0C777.3 0 731.7 0 686 0C640.3 0 594.7 0 548.8 0C503 0 457 0 411.2 0C365.3 0 319.7 0 274 0C228.3 0 182.7 0 137 0C91.3 0 45.7 0 22.8 0L0 0Z" fill="#e34c67"></path><path d="M0 53L22.8 49.2C45.7 45.3 91.3 37.7 137 35.2C182.7 32.7 228.3 35.3 274 36.2C319.7 37 365.3 36 411.2 38C457 40 503 45 548.8 44.2C594.7 43.3 640.3 36.7 686 37.7C731.7 38.7 777.3 47.3 823 51.8C868.7 56.3 914.3 56.7 937.2 56.8L960 57L960 0L937.2 0C914.3 0 868.7 0 823 0C777.3 0 731.7 0 686 0C640.3 0 594.7 0 548.8 0C503 0 457 0 411.2 0C365.3 0 319.7 0 274 0C228.3 0 182.7 0 137 0C91.3 0 45.7 0 22.8 0L0 0Z" fill="#d53867"></path><path d="M0 30L22.8 29.8C45.7 29.7 91.3 29.3 137 28.7C182.7 28 228.3 27 274 27.5C319.7 28 365.3 30 411.2 30C457 30 503 28 548.8 28.2C594.7 28.3 640.3 30.7 686 30.7C731.7 30.7 777.3 28.3 823 26.8C868.7 25.3 914.3 24.7 937.2 24.3L960 24L960 0L937.2 0C914.3 0 868.7 0 823 0C777.3 0 731.7 0 686 0C640.3 0 594.7 0 548.8 0C503 0 457 0 411.2 0C365.3 0 319.7 0 274 0C228.3 0 182.7 0 137 0C91.3 0 45.7 0 22.8 0L0 0Z" fill="#c62368"></path></svg>