<svg id="visual" viewBox="0 0 960 400" width="960" height="400" xmlns="http://www.w3.org/2000/svg" xmlns:xlink="http://www.w3.org/1999/xlink" version="1.1"><rect x="0" y="0" width="960" height="400" fill="#202731"></rect><path d="M0 216L22.8 211.5C45.7 207 91.3 198 137 195.5C182.7 193 228.3 197 274 198.2C319.7 199.3 365.3 197.7 411.2 199.2C457 200.7 503 205.3 548.8 199.2C594.7 193 640.3 176 686 169.7C731.7 163.3 777.3 167.7 823 167.2C868.7 166.7 914.3 161.3 937.2 158.7L960 156L960 401L937.2 401C914.3 401 868.7 401 823 401C777.3 401 731.7 401 686 401C640.3 401 594.7 401 548.8 401C503 401 457 401 411.2 401C365.3 401 319.7 401 274 401C228.3 401 182.7 401 137 401C91.3 401 45.7 401 22.8 401L0 401Z" fill="#0066ff"></path><path d="M0 235L22.8 227.8C45.7 220.7 91.3 206.3 137 209.5C182.7 212.7 228.3 233.3 274 236.7C319.7 240 365.3 226 411.2 217C457 208 503 204 548.8 202.8C594.7 201.7 640.3 203.3 686 203.3C731.7 203.3 777.3 201.7 823 208.7C868.7 215.7 914.3 231.3 937.2 239.2L960 247L960 401L937.2 401C914.3 401 868.7 401 823 401C777.3 401 731.7 401 686 401C640.3 401 594.7 401 548.8 401C503 401 457 401 411.2 401C365.3 401 319.7 401 274 401C228.3 401 182.7 401 137 401C91.3 401 45.7 401 22.8 401L0 401Z" fill="#8a53eb"></path><path d="M0 256L22.8 251.3C45.7 246.7 91.3 237.3 137 240.3C182.7 243.3 228.3 258.7 274 260.2C319.7 261.7 365.3 249.3 411.2 245C457 240.7 503 244.3 548.8 250C594.7 255.7 640.3 263.3 686 269.2C731.7 275 777.3 279 823 278.3C868.7 277.7 914.3 272.3 937.2 269.7L960 267L960 401L937.2 401C914.3 401 868.7 401 823 401C777.3 401 731.7 401 686 401C640.3 401 594.7 401 548.8 401C503 401 457 401 411.2 401C365.3 401 319.7 401 274 401C228.3 401 182.7 401 137 401C91.3 401 45.7 401 22.8 401L0 401Z" fill="#be3acf"></path><path d="M0 294L22.8 293.3C45.7 292.7 91.3 291.3 137 294.8C182.7 298.3 228.3 306.7 274 305.2C319.7 303.7 365.3 292.3 411.2 288.8C457 285.3 503 289.7 548.8 289.5C594.7 289.3 640.3 284.7 686 280.5C731.7 276.3 777.3 272.7 823 272.5C868.7 272.3 914.3 275.7 937.2 277.3L960 279L960 401L937.2 401C914.3 401 868.7 401 823 401C777.3 401 731.7 401 686 401C640.3 401 594.7 401 548.8 401C503 401 457 401 411.2 401C365.3 401 319.7 401 274 401C228.3 401 182.7 401 137 401C91.3 401 45.7 401 22.8 401L0 401Z" fill="#de19ae"></path><path d="M0 324L22.8 325.3C45.7 326.7 91.3 329.3 137 329.2C182.7 329 228.3 326 274 325.7C319.7 325.3 365.3 327.7 411.2 329C457 330.3 503 330.7 548.8 332C594.7 333.3 640.3 335.7 686 335.2C731.7 334.7 777.3 331.3 823 331.8C868.7 332.3 914.3 336.7 937.2 338.8L960 341L960 401L937.2 401C914.3 401 868.7 401 823 401C777.3 401 731.7 401 686 401C640.3 401 594.7 401 548.8 401C503 401 457 401 411.2 401C365.3 401 319.7 401 274 401C228.3 401 182.7 401 137 401C91.3 401 45.7 401 22.8 401L0 401Z" fill="#f1008c"></path><path d="M0 345L22.8 350.2C45.7 355.3 91.3 365.7 137 371.2C182.7 376.7 228.3 377.3 274 373.8C319.7 370.3 365.3 362.7 411.2 358.5C457 354.3 503 353.7 548.8 352C594.7 350.3 640.3 347.7 686 350C731.7 352.3 777.3 359.7 823 358.8C868.7 358 914.3 349 937.2 344.5L960 340L960 401L937.2 401C914.3 401 868.7 401 823 401C777.3 401 731.7 401 686 401C640.3 401 594.7 401 548.8 401C503 401 457 401 411.2 401C365.3 401 319.7 401 274 401C228.3 401 182.7 401 137 401C91.3 401 45.7 401 22.8 401L0 401Z" fill="#f9046a"></path></svg>