<svg id="visual" viewBox="0 0 960 400" width="960" height="400" xmlns="http://www.w3.org/2000/svg"
     xmlns:xlink="http://www.w3.org/1999/xlink" version="1.1">
    <g transform="translate(483.77650833544976 190.72725273656422)">
        <path id='blob1' d="M76.5 -95.1C99.5 -71.9 118.7 -48.1 132.4 -16.5C146.2 15.1 154.5 54.6 142.9 89.9C131.3 125.3 99.9 156.6 65.2 161.8C30.4 167 -7.5 146 -37.3 125.2C-67 104.5 -88.5 84 -111.3 57.8C-134.1 31.6 -158.1 -0.2 -155.8 -29.9C-153.4 -59.5 -124.6 -86.8 -94.2 -108.6C-63.9 -130.4 -31.9 -146.7 -2.6 -143.7C26.8 -140.6 53.6 -118.2 76.5 -95.1"
              fill="#BB004B"></path>
    </g>
</svg>