<svg id="visual" viewBox="0 0 960 400" width="960" height="400" xmlns="http://www.w3.org/2000/svg"
     xmlns:xlink="http://www.w3.org/1999/xlink" version="1.1">
    <g transform="translate(475.51948293452494 185.87928222433226)">
        <path id="blob2"
              d="M114.4 -128C143.2 -112.3 157.7 -71.3 154.4 -35.4C151 0.6 129.6 31.5 111.3 65.1C92.9 98.7 77.6 134.8 49.3 152.5C21.1 170.1 -20.1 169.1 -50.8 152.4C-81.5 135.6 -101.8 103.1 -117.9 70.4C-133.9 37.7 -145.7 5 -145.9 -31.2C-146 -67.3 -134.4 -106.8 -108.1 -123C-81.8 -139.2 -40.9 -132.1 1 -133.3C42.9 -134.4 85.7 -143.8 114.4 -128"
              fill="#BB004B"></path>
    </g>
</svg>